<svg width="1218" height="500" viewBox="0 0 1218 500" fill="none" xmlns="http://www.w3.org/2000/svg">
<rect x="25" y="25" width="450" height="450" rx="225" stroke="#2463EB" stroke-width="50"/>
<rect x="225" y="475" width="450" height="50" transform="rotate(-90 225 475)" fill="#2463EB"/>
<path d="M612.891 172.99V328H672.08C718.594 328 745.986 299.104 745.986 249.904C745.986 200.705 718.594 172.99 672.08 172.99H612.891ZM645.332 199.738H668.213C696.787 199.738 712.9 217.57 712.9 250.012C712.9 283.527 697.217 301.145 668.213 301.145H645.332V199.738ZM808.076 307.16C797.441 307.16 790.352 301.789 790.352 293.195C790.352 285.031 797.012 279.768 808.721 278.908L832.998 277.404V285.783C832.998 298.244 821.719 307.16 808.076 307.16ZM797.764 329.826C812.158 329.826 826.445 322.629 832.891 310.383H833.535V328H863.828V248.83C863.828 225.627 844.6 210.373 815.059 210.373C784.551 210.373 765.537 225.734 764.355 248.078H793.037C794.541 239.592 801.953 233.791 813.662 233.791C825.479 233.791 832.998 240.021 832.998 250.764V258.391L803.994 260.109C775.312 261.828 759.199 273.967 759.199 294.914C759.199 315.646 775.85 329.826 797.764 329.826ZM952.559 329.826C981.562 329.826 999.287 307.482 999.287 270.422C999.287 233.254 981.455 211.018 952.451 211.018C936.016 211.018 923.232 219.182 916.895 232.824H916.25V172.99H884.883V328H915.82V308.234H916.465C922.803 321.662 935.693 329.826 952.559 329.826ZM941.709 236.154C957.285 236.154 967.168 249.475 967.168 270.422C967.168 291.477 957.393 304.582 941.709 304.582C926.455 304.582 916.143 291.262 916.143 270.422C916.143 249.797 926.562 236.154 941.709 236.154Z" fill="black"/>
<path d="M1050.74 172.99H1018.3V273.215C1018.3 307.375 1043.54 330.686 1083.29 330.686C1122.93 330.686 1148.17 307.375 1148.17 273.215V172.99H1115.73V269.992C1115.73 289.865 1104.02 302.863 1083.29 302.863C1062.45 302.863 1050.74 289.865 1050.74 269.992V172.99ZM1206.5 328V172.99H1174.06V328H1206.5Z" fill="#2463EB"/>
</svg>
